<svg id="Layer_1" data-name="Layer 1" xmlns="http://www.w3.org/2000/svg" viewBox="0 0 21.65 20.9"><defs><style>.cls-1{fill:#081a15;fill-opacity:0.5;}.cls-1,.cls-2,.cls-3{fill-rule:evenodd;}.cls-3{fill:#8cb5e6;}</style></defs><title>Artboard 1</title><g id="shape0"><path class="cls-1" d="M16,3.65,16,3.55,15,2.45H15l-.7-.85-.05-.2.05-.2.15-.15h.2a9.54,9.54,0,0,1,5,3.35,9.81,9.81,0,0,1,2,5.9,10.86,10.86,0,0,1-2.85,7.35,9.24,9.24,0,0,1-7,3.25,9.09,9.09,0,0,1-7-3.25A10.58,10.58,0,0,1,2,10.3,9.17,9.17,0,0,1,3.85,4.6v0A9.85,9.85,0,0,1,8.6,1.05h.2l.15.1.1.2L9,1.55,7.7,3.7l-.4,1,0,.1,0,.1-.1.3V5.4l0,.5V6a4.67,4.67,0,0,0,3.55,4.5l.9-2.85.1-.15.2,0,.2,0,.1.15,1,2.85A5,5,0,0,0,15.2,9.3,4.69,4.69,0,0,0,16.6,6l-.05-.65-.05-.1V5.1L16,3.65"/><path class="cls-2" d="M14,2.65,14,2.55,13,1.45H13L12.25.6,12.2.4l.05-.2L12.4.05h.2a9.54,9.54,0,0,1,5,3.35,9.81,9.81,0,0,1,2,5.9,10.86,10.86,0,0,1-2.85,7.35,9.24,9.24,0,0,1-7,3.25,9.09,9.09,0,0,1-7-3.25A10.58,10.58,0,0,1,0,9.3,9.17,9.17,0,0,1,1.85,3.6V3.55A9.85,9.85,0,0,1,6.6.05h.2L7,.15l.1.2,0,.2L5.7,2.7l-.4.95,0,.1,0,.1-.1.3V4.4l0,.5V5A4.67,4.67,0,0,0,8.6,9.45L9.5,6.6l.1-.15.2,0,.2,0,.1.15,1,2.85A5,5,0,0,0,13.2,8.3,4.69,4.69,0,0,0,14.6,5l0-.65-.05-.1V4.1L14,2.65"/><path class="cls-3" d="M14.3,2.55l1.15,1-.55-1.4A8.63,8.63,0,0,1,17.6,5.3a8.44,8.44,0,0,1,1,4,8.61,8.61,0,0,1-2.55,6.25,9.36,9.36,0,0,1-2.7,1.85l-.55-1.85a9.12,9.12,0,0,0,2.35-1.65,7.21,7.21,0,0,0,2.2-5.3,7.22,7.22,0,0,0-3.1-6.1l.05,0M15.6,5a6.67,6.67,0,0,1,1,3.65,7.2,7.2,0,0,1-.45,2.55h-2a5.67,5.67,0,0,0,1.65-4.1A5.56,5.56,0,0,0,15.3,4.6l.3.75V5M15.15,7.2a5,5,0,0,1-1.65,3.65l-.3.3H11.3l-.2-.6L13,9.7a6.29,6.29,0,0,0,2.15-2.5m-.5,6.2a6.71,6.71,0,0,1-2.1,1.45l-.35-1.1,4.2-2.3L16,11.7l-1.3,1.7M9.8,9.9l.75,2.25H13L11,13.25l.7,2.3-1.85-1.3L8,15.55l.7-2.25-2-1.15h2.4L9.8,9.9m0,8.2-3-.5,2.75-1.85-.5.35H9.8l.9-.05L13,17.6l-3.15.5M7.15,14.9l-1,3.1.2-.6A8.19,8.19,0,0,1,3.6,15.55,8.53,8.53,0,0,1,1,9.3a8.44,8.44,0,0,1,1-4A8.63,8.63,0,0,1,4.7,2.15l-.55,1.5L3.1,5.15A7.22,7.22,0,0,0,2.25,8.6a7.21,7.21,0,0,0,2.2,5.3L6.9,15.55l.25-.65A8.26,8.26,0,0,1,5,13.4L3.7,11.7l3.75,2.1-.3,1.1M3,8.6A7.18,7.18,0,0,1,4,5l0,.45L3.8,7.05a5.67,5.67,0,0,0,1.65,4.1h-2A6.62,6.62,0,0,1,3,8.6m3.2,2.25A5,5,0,0,1,4.5,7.2,5.94,5.94,0,0,0,6.6,9.7a6.06,6.06,0,0,0,2,.85l-.2.6H6.5l-.35-.3"/></g></svg>