<svg id="Layer_1" data-name="Layer 1" xmlns="http://www.w3.org/2000/svg" viewBox="0 0 19.99 19.99"><defs><style>.cls-1{fill-opacity:0.2;}.cls-1,.cls-2,.cls-3,.cls-4{fill-rule:evenodd;}.cls-2{fill:#edffb1;}.cls-4{fill:#f8c95d;}</style></defs><title>Artboard 1</title><g id="sprite0"><g id="shape0"><path class="cls-1" d="M19,10.29A8,8,0,0,0,16.52,4.4,8,8,0,0,0,10.63,2,8.1,8.1,0,0,0,4.73,4.4,8,8,0,0,0,2.3,10.29a8.1,8.1,0,0,0,2.43,5.9,8.1,8.1,0,0,0,5.9,2.43,8,8,0,0,0,5.89-2.43A8.07,8.07,0,0,0,19,10.29m-2,6.37a8.67,8.67,0,0,1-6.36,2.63,8.77,8.77,0,0,1-6.37-2.63,8.77,8.77,0,0,1-2.63-6.37A8.7,8.7,0,0,1,4.26,3.93,8.77,8.77,0,0,1,10.63,1.3,8.67,8.67,0,0,1,17,3.93a8.66,8.66,0,0,1,2.63,6.36A8.73,8.73,0,0,1,17,16.66"/><path class="cls-2" d="M16.36,16.36A8.7,8.7,0,0,1,10,19a8.76,8.76,0,0,1-6.36-2.63A8.77,8.77,0,0,1,1,10,8.7,8.7,0,0,1,3.63,3.63,8.76,8.76,0,0,1,10,1a8.7,8.7,0,0,1,6.37,2.63A8.7,8.7,0,0,1,19,10a8.77,8.77,0,0,1-2.63,6.37m2-6.37A8,8,0,0,0,15.89,4.1,8,8,0,0,0,10,1.67,8.1,8.1,0,0,0,4.1,4.1,8,8,0,0,0,1.67,10a8.1,8.1,0,0,0,2.43,5.9A8.1,8.1,0,0,0,10,18.32a8,8,0,0,0,5.9-2.43A8.1,8.1,0,0,0,18.32,10"/><path class="cls-3" d="M18.66,10a8.41,8.41,0,0,1-2.54,6.13A8.33,8.33,0,0,1,10,18.66a8.43,8.43,0,0,1-6.13-2.54A8.44,8.44,0,0,1,1.33,10,8.4,8.4,0,0,1,3.86,3.86,8.46,8.46,0,0,1,10,1.33a8.36,8.36,0,0,1,6.13,2.53A8.37,8.37,0,0,1,18.66,10"/><path class="cls-3" d="M10,20a9.65,9.65,0,0,1-7.06-2.93A9.66,9.66,0,0,1,0,10,9.65,9.65,0,0,1,2.93,2.93,9.65,9.65,0,0,1,10,0a9.58,9.58,0,0,1,7.07,2.93A9.65,9.65,0,0,1,20,10a9.66,9.66,0,0,1-2.93,7.07A9.66,9.66,0,0,1,10,20M10,2.67A7,7,0,0,0,4.83,4.8,7.08,7.08,0,0,0,2.67,10a7,7,0,0,0,2.16,5.17A7,7,0,0,0,10,17.32a7,7,0,0,0,5.17-2.16A7,7,0,0,0,17.32,10,7.08,7.08,0,0,0,15.16,4.8,7,7,0,0,0,10,2.67"/><path class="cls-4" d="M10,19a8.7,8.7,0,0,1-6.36-2.63A8.7,8.7,0,0,1,1,10,8.7,8.7,0,0,1,3.63,3.63,8.7,8.7,0,0,1,10,1a8.7,8.7,0,0,1,6.37,2.63A8.7,8.7,0,0,1,19,10a8.7,8.7,0,0,1-2.63,6.37A8.7,8.7,0,0,1,10,19M10,1.67A8.1,8.1,0,0,0,4.1,4.1,8.1,8.1,0,0,0,1.67,10,8,8,0,0,0,4.1,15.86,8,8,0,0,0,10,18.32a8.05,8.05,0,0,0,5.9-2.46A8,8,0,0,0,18.32,10,8.1,8.1,0,0,0,15.89,4.1,8,8,0,0,0,10,1.67"/></g></g><g id="shape1"><path class="cls-4" d="M6.74,15a.65.65,0,0,0,.5-.2l.2-.45-.2-.5-.5-.2-.45.2-.2.5.15.45.5.2m-.6-1.5a12.32,12.32,0,0,0,2.3-2.05l1.25,1.3-2,2.15a.85.85,0,0,1-1,.4.92.92,0,0,1-.85-.75,1,1,0,0,1,.4-1m7.91.15.29.65-.2.5-.7.5a.51.51,0,0,1-.7-.2L7.39,9.29l.9-.9,1.1,1,3.7,3.4,1,.85M6.49,9,6,9.14l-.49.55-.25.4-.56.6a.24.24,0,0,1-.4,0L3.09,9.39C3,9.29,3,9.16,3.09,9l.71-.7.29-.1.5-.45.1-.6.11-.2,1-1.1.25-.1a.61.61,0,0,0,.6-.15,4.05,4.05,0,0,1,2.2-.7,2.21,2.21,0,0,1,1.6.9l.1.2v.2a.36.36,0,0,1-.35.15l-.55-.2-1.35.2-.4.8v.35c.07.14,0,.27-.15.4l-1,1L6.49,9m9.6-2.6a2.73,2.73,0,0,1,0,1.5,2.12,2.12,0,0,1-.6,1.15,2.56,2.56,0,0,1-1.3.5h-.85a1.34,1.34,0,0,0-1.05.45l-.6.6-1.3-1.2.7-.7a1.14,1.14,0,0,0,.4-1.1,3.11,3.11,0,0,1,.3-1.7,1.7,1.7,0,0,1,1.45-1h.85l.6,0-1.45,1.4a.91.91,0,0,0-.3.65l.25.6.45.35.91-.1,1.54-1.5"/></g></svg>