<?xml version="1.0" encoding="UTF-8" standalone="no"?>
<svg xmlns:xlink="http://www.w3.org/1999/xlink" height="20.9px" width="21.65px" xmlns="http://www.w3.org/2000/svg">
  <g transform="matrix(1.0, 0.0, 0.0, 1.0, 9.8, 9.95)">
    <use height="20.9" transform="matrix(1.0, 0.0, 0.0, 1.0, -9.8, -9.95)" width="21.65" xlink:href="#shape0"/>
  </g>
  <defs>
    <g id="shape0" transform="matrix(1.0, 0.0, 0.0, 1.0, 9.8, 9.95)">
      <path d="M6.2 -6.3 L6.15 -6.4 5.2 -7.5 5.15 -7.5 4.45 -8.35 4.4 -8.55 4.45 -8.75 4.6 -8.9 4.8 -8.9 Q7.95 -8.0 9.85 -5.55 11.8 -2.95 11.85 0.35 11.85 4.45 9.0 7.7 6.0 10.95 2.0 10.95 -2.0 10.95 -4.95 7.7 -7.85 4.45 -7.8 0.35 -7.85 -2.75 -5.95 -5.35 L-5.95 -5.4 Q-4.15 -7.85 -1.2 -8.9 L-1.0 -8.9 -0.85 -8.8 -0.75 -8.6 -0.8 -8.4 -2.1 -6.25 -2.5 -5.3 -2.55 -5.2 -2.6 -5.1 -2.7 -4.8 -2.7 -4.55 -2.75 -4.05 -2.75 -4.0 Q-2.75 -2.1 -1.3 -0.65 -0.4 0.2 0.8 0.5 L1.7 -2.35 1.8 -2.5 2.0 -2.55 2.2 -2.5 2.3 -2.35 3.25 0.5 Q4.45 0.2 5.4 -0.65 6.8 -2.1 6.8 -4.0 L6.75 -4.65 6.7 -4.75 6.7 -4.85 6.2 -6.3" fill="#081a15" fill-opacity="0.49803922" fill-rule="evenodd" stroke="none"/>
      <path d="M4.2 -7.3 L4.15 -7.4 3.2 -8.5 3.15 -8.5 2.45 -9.35 2.4 -9.55 2.45 -9.75 2.6 -9.9 2.8 -9.9 Q5.95 -9.0 7.85 -6.55 9.8 -3.95 9.85 -0.65 9.85 3.45 7.0 6.7 4.0 9.95 0.0 9.95 -4.0 9.95 -6.95 6.7 -9.85 3.45 -9.8 -0.65 -9.85 -3.75 -7.95 -6.35 L-7.95 -6.4 Q-6.15 -8.85 -3.2 -9.9 L-3.0 -9.9 -2.85 -9.8 -2.75 -9.6 -2.8 -9.4 -4.1 -7.25 -4.5 -6.3 -4.55 -6.2 -4.6 -6.1 -4.7 -5.8 -4.7 -5.55 -4.75 -5.05 -4.75 -5.0 Q-4.75 -3.1 -3.3 -1.65 -2.4 -0.8 -1.2 -0.5 L-0.3 -3.35 -0.2 -3.5 0.0 -3.55 0.2 -3.5 0.3 -3.35 1.25 -0.5 Q2.45 -0.8 3.4 -1.65 4.8 -3.1 4.8 -5.0 L4.75 -5.65 4.7 -5.75 4.7 -5.85 4.2 -7.3" fill="#000000" fill-rule="evenodd" stroke="none"/>
      <path d="M4.5 -7.4 L5.65 -6.4 5.1 -7.8 Q6.8 -6.6 7.8 -4.65 8.8 -2.75 8.8 -0.65 8.8 3.0 6.25 5.6 5.0 6.8 3.55 7.45 L3.0 5.6 Q4.25 5.0 5.35 3.95 7.55 1.75 7.55 -1.35 7.55 -5.15 4.45 -7.45 L4.5 -7.4 M5.8 -5.0 Q6.85 -3.35 6.85 -1.35 6.85 0.0 6.4 1.2 L4.4 1.2 Q6.05 -0.5 6.05 -2.9 6.05 -4.2 5.5 -5.35 L5.8 -4.6 5.8 -5.0 M5.35 -2.75 Q5.3 -0.6 3.7 0.9 L3.4 1.2 1.5 1.2 1.3 0.6 3.2 -0.25 Q4.6 -1.2 5.35 -2.75 M4.85 3.45 Q3.9 4.4 2.75 4.9 L2.4 3.8 6.6 1.5 6.15 1.75 4.85 3.45 M0.0 -0.05 L0.75 2.2 3.15 2.2 1.2 3.3 1.9 5.6 0.05 4.3 -1.85 5.6 -1.15 3.35 -3.15 2.2 -0.75 2.2 0.0 -0.05 M0.0 8.15 L-3.0 7.65 -0.25 5.8 -0.75 6.15 0.0 6.15 0.9 6.1 3.15 7.65 0.0 8.15 M-2.65 4.95 L-3.65 8.05 -3.45 7.45 Q-4.95 6.85 -6.2 5.6 -8.8 3.0 -8.8 -0.65 -8.8 -2.75 -7.8 -4.65 -6.8 -6.6 -5.1 -7.8 L-5.65 -6.3 -6.7 -4.8 Q-7.55 -3.2 -7.55 -1.35 -7.55 1.75 -5.35 3.95 L-2.9 5.6 -2.65 4.95 Q-3.85 4.4 -4.85 3.45 L-6.1 1.75 -2.35 3.85 -2.65 4.95 M-6.85 -1.35 Q-6.85 -3.2 -5.8 -5.0 L-5.75 -4.55 -6.0 -2.9 Q-6.0 -0.5 -4.35 1.2 L-6.35 1.2 Q-6.85 0.0 -6.85 -1.35 M-3.65 0.9 Q-5.25 -0.6 -5.3 -2.75 -4.6 -1.2 -3.2 -0.25 -2.3 0.35 -1.25 0.6 L-1.45 1.2 -3.3 1.2 -3.65 0.9" fill="#8cb5e6" fill-rule="evenodd" stroke="none"/>
    </g>
  </defs>
</svg>
